M48
; DRILL file {KiCad (6.0.10)} date Sun Jan 22 19:50:51 2023
; FORMAT={-:-/ absolute / inch / decimal}
; #@! TF.CreationDate,2023-01-22T19:50:51+01:00
; #@! TF.GenerationSoftware,Kicad,Pcbnew,(6.0.10)
; #@! TF.FileFunction,NonPlated,1,2,NPTH
FMAT,2
INCH
; #@! TA.AperFunction,NonPlated,NPTH,ComponentDrill
T1C0.1063
; #@! TA.AperFunction,NonPlated,NPTH,ComponentDrill
T2C0.1772
%
G90
G05
T1
X4.4488Y-5.0394
X4.4488Y-5.0394
X4.4488Y-6.2205
X4.4488Y-6.2205
X6.4173Y-5.0394
X6.4173Y-5.0394
X6.4173Y-6.2205
X6.4173Y-6.2205
X8.3858Y-5.0394
X8.3858Y-5.0394
X8.3858Y-6.2205
X8.3858Y-6.2205
X10.3543Y-5.0394
X10.3543Y-5.0394
X10.3543Y-6.2205
X10.3543Y-6.2205
X12.3228Y-5.0394
X12.3228Y-5.0394
X12.3228Y-6.2205
X12.3228Y-6.2205
T2
X2.0866Y-4.311
X14.685Y-6.9488
T0
M30
