%TF.GenerationSoftware,KiCad,Pcbnew,(6.0.10)*%
%TF.CreationDate,2023-01-22T19:50:48+01:00*%
%TF.ProjectId,exiLight,6578694c-6967-4687-942e-6b696361645f,1.1*%
%TF.SameCoordinates,Original*%
%TF.FileFunction,Soldermask,Top*%
%TF.FilePolarity,Negative*%
%FSLAX46Y46*%
G04 Gerber Fmt 4.6, Leading zero omitted, Abs format (unit mm)*
G04 Created by KiCad (PCBNEW (6.0.10)) date 2023-01-22 19:50:48*
%MOMM*%
%LPD*%
G01*
G04 APERTURE LIST*
G04 Aperture macros list*
%AMRoundRect*
0 Rectangle with rounded corners*
0 $1 Rounding radius*
0 $2 $3 $4 $5 $6 $7 $8 $9 X,Y pos of 4 corners*
0 Add a 4 corners polygon primitive as box body*
4,1,4,$2,$3,$4,$5,$6,$7,$8,$9,$2,$3,0*
0 Add four circle primitives for the rounded corners*
1,1,$1+$1,$2,$3*
1,1,$1+$1,$4,$5*
1,1,$1+$1,$6,$7*
1,1,$1+$1,$8,$9*
0 Add four rect primitives between the rounded corners*
20,1,$1+$1,$2,$3,$4,$5,0*
20,1,$1+$1,$4,$5,$6,$7,0*
20,1,$1+$1,$6,$7,$8,$9,0*
20,1,$1+$1,$8,$9,$2,$3,0*%
G04 Aperture macros list end*
%ADD10RoundRect,0.250000X-0.337500X-0.475000X0.337500X-0.475000X0.337500X0.475000X-0.337500X0.475000X0*%
%ADD11RoundRect,0.250000X0.337500X0.475000X-0.337500X0.475000X-0.337500X-0.475000X0.337500X-0.475000X0*%
%ADD12R,1.500000X1.000000*%
%ADD13C,4.500000*%
%ADD14C,2.700000*%
%ADD15RoundRect,0.635000X-1.905000X-0.635000X1.905000X-0.635000X1.905000X0.635000X-1.905000X0.635000X0*%
%ADD16RoundRect,0.635000X1.905000X0.635000X-1.905000X0.635000X-1.905000X-0.635000X1.905000X-0.635000X0*%
G04 APERTURE END LIST*
D10*
%TO.C,C22*%
X255000000Y-141400000D03*
X257075000Y-141400000D03*
%TD*%
D11*
%TO.C,C11*%
X271000000Y-169600000D03*
X268925000Y-169600000D03*
%TD*%
D12*
%TO.C,D37*%
X140550000Y-116400000D03*
X140550000Y-119600000D03*
X145450000Y-119600000D03*
X145450000Y-116400000D03*
%TD*%
%TO.C,D30*%
X105450000Y-144600000D03*
X105450000Y-141400000D03*
X100550000Y-141400000D03*
X100550000Y-144600000D03*
%TD*%
%TO.C,D27*%
X165450000Y-144600000D03*
X165450000Y-141400000D03*
X160550000Y-141400000D03*
X160550000Y-144600000D03*
%TD*%
%TO.C,D6*%
X160550000Y-166400000D03*
X160550000Y-169600000D03*
X165450000Y-169600000D03*
X165450000Y-166400000D03*
%TD*%
D13*
%TO.C,REF\u002A\u002A*%
X53000000Y-109500000D03*
%TD*%
D14*
%TO.C,REF\u002A\u002A6*%
X163000000Y-158000000D03*
X163000000Y-158000000D03*
%TD*%
D12*
%TO.C,D11*%
X260550000Y-166400000D03*
X260550000Y-169600000D03*
X265450000Y-169600000D03*
X265450000Y-166400000D03*
%TD*%
%TO.C,D43*%
X260550000Y-116400000D03*
X260550000Y-119600000D03*
X265450000Y-119600000D03*
X265450000Y-116400000D03*
%TD*%
%TO.C,D10*%
X240550000Y-166400000D03*
X240550000Y-169600000D03*
X245450000Y-169600000D03*
X245450000Y-166400000D03*
%TD*%
D10*
%TO.C,C19*%
X315000000Y-141400000D03*
X317075000Y-141400000D03*
%TD*%
D12*
%TO.C,D26*%
X185450000Y-144600000D03*
X185450000Y-141400000D03*
X180550000Y-141400000D03*
X180550000Y-144600000D03*
%TD*%
%TO.C,D12*%
X280550000Y-166400000D03*
X280550000Y-169600000D03*
X285450000Y-169600000D03*
X285450000Y-166400000D03*
%TD*%
D10*
%TO.C,C29*%
X115000000Y-141400000D03*
X117075000Y-141400000D03*
%TD*%
D11*
%TO.C,C42*%
X251000000Y-119600000D03*
X248925000Y-119600000D03*
%TD*%
D10*
%TO.C,C17*%
X355000000Y-141400000D03*
X357075000Y-141400000D03*
%TD*%
D12*
%TO.C,D20*%
X305450000Y-144600000D03*
X305450000Y-141400000D03*
X300550000Y-141400000D03*
X300550000Y-144600000D03*
%TD*%
%TO.C,D32*%
X65450000Y-144600000D03*
X65450000Y-141400000D03*
X60550000Y-141400000D03*
X60550000Y-144600000D03*
%TD*%
D11*
%TO.C,C5*%
X151000000Y-169600000D03*
X148925000Y-169600000D03*
%TD*%
D15*
%TO.C,*%
X60000000Y-152000000D03*
%TD*%
D12*
%TO.C,D45*%
X300550000Y-116400000D03*
X300550000Y-119600000D03*
X305450000Y-119600000D03*
X305450000Y-116400000D03*
%TD*%
D11*
%TO.C,C43*%
X271000000Y-119600000D03*
X268925000Y-119600000D03*
%TD*%
D14*
%TO.C,REF\u002A\u002A*%
X113000000Y-128000000D03*
X113000000Y-128000000D03*
%TD*%
D10*
%TO.C,C27*%
X153962500Y-141400000D03*
X156037500Y-141400000D03*
%TD*%
%TO.C,C23*%
X235000000Y-141400000D03*
X237075000Y-141400000D03*
%TD*%
D14*
%TO.C,REF\u002A\u002A2*%
X213000000Y-128000000D03*
X213000000Y-128000000D03*
%TD*%
D12*
%TO.C,D4*%
X120550000Y-166400000D03*
X120550000Y-169600000D03*
X125450000Y-169600000D03*
X125450000Y-166400000D03*
%TD*%
D13*
%TO.C,REF\u002A\u002A*%
X373000000Y-176500000D03*
%TD*%
D11*
%TO.C,C37*%
X151000000Y-119600000D03*
X148925000Y-119600000D03*
%TD*%
D10*
%TO.C,C31*%
X75000000Y-141400000D03*
X77075000Y-141400000D03*
%TD*%
D14*
%TO.C,REF\u002A\u002A9*%
X313000000Y-158000000D03*
X313000000Y-158000000D03*
%TD*%
D11*
%TO.C,C32*%
X69000000Y-134000000D03*
X66925000Y-134000000D03*
%TD*%
D10*
%TO.C,C24*%
X215000000Y-141400000D03*
X217075000Y-141400000D03*
%TD*%
D12*
%TO.C,D3*%
X100550000Y-166400000D03*
X100550000Y-169600000D03*
X105450000Y-169600000D03*
X105450000Y-166400000D03*
%TD*%
D10*
%TO.C,C20*%
X295000000Y-141400000D03*
X297075000Y-141400000D03*
%TD*%
D12*
%TO.C,D33*%
X60550000Y-116400000D03*
X60550000Y-119600000D03*
X65450000Y-119600000D03*
X65450000Y-116400000D03*
%TD*%
%TO.C,D36*%
X120550000Y-116400000D03*
X120550000Y-119600000D03*
X125450000Y-119600000D03*
X125450000Y-116400000D03*
%TD*%
D11*
%TO.C,C33*%
X71000000Y-119600000D03*
X68925000Y-119600000D03*
%TD*%
D12*
%TO.C,D13*%
X300550000Y-166400000D03*
X300550000Y-169600000D03*
X305450000Y-169600000D03*
X305450000Y-166400000D03*
%TD*%
D15*
%TO.C,*%
X60000000Y-155500000D03*
%TD*%
D12*
%TO.C,D18*%
X345450000Y-144600000D03*
X345450000Y-141400000D03*
X340550000Y-141400000D03*
X340550000Y-144600000D03*
%TD*%
%TO.C,D1*%
X60550000Y-166400000D03*
X60550000Y-169600000D03*
X65450000Y-169600000D03*
X65450000Y-166400000D03*
%TD*%
D11*
%TO.C,C35*%
X111000000Y-119600000D03*
X108925000Y-119600000D03*
%TD*%
D12*
%TO.C,D25*%
X205450000Y-144600000D03*
X205450000Y-141400000D03*
X200550000Y-141400000D03*
X200550000Y-144600000D03*
%TD*%
D11*
%TO.C,C47*%
X352037500Y-119600000D03*
X349962500Y-119600000D03*
%TD*%
D12*
%TO.C,D24*%
X225450000Y-144600000D03*
X225450000Y-141400000D03*
X220550000Y-141400000D03*
X220550000Y-144600000D03*
%TD*%
%TO.C,D38*%
X160550000Y-116400000D03*
X160550000Y-119600000D03*
X165450000Y-119600000D03*
X165450000Y-116400000D03*
%TD*%
D14*
%TO.C,REF\u002A\u002A3*%
X263000000Y-128000000D03*
X263000000Y-128000000D03*
%TD*%
D12*
%TO.C,D23*%
X245450000Y-144600000D03*
X245450000Y-141400000D03*
X240550000Y-141400000D03*
X240550000Y-144600000D03*
%TD*%
D14*
%TO.C,REF\u002A\u002A8*%
X263000000Y-158000000D03*
X263000000Y-158000000D03*
%TD*%
D11*
%TO.C,C8*%
X211000000Y-169600000D03*
X208925000Y-169600000D03*
%TD*%
%TO.C,C41*%
X231000000Y-119600000D03*
X228925000Y-119600000D03*
%TD*%
D12*
%TO.C,D2*%
X80550000Y-166400000D03*
X80550000Y-169600000D03*
X85450000Y-169600000D03*
X85450000Y-166400000D03*
%TD*%
D10*
%TO.C,C21*%
X275000000Y-141400000D03*
X277075000Y-141400000D03*
%TD*%
D12*
%TO.C,D21*%
X285450000Y-144600000D03*
X285450000Y-141400000D03*
X280550000Y-141400000D03*
X280550000Y-144600000D03*
%TD*%
%TO.C,D28*%
X145450000Y-144600000D03*
X145450000Y-141400000D03*
X140550000Y-141400000D03*
X140550000Y-144600000D03*
%TD*%
D16*
%TO.C,*%
X366000000Y-130500000D03*
%TD*%
D11*
%TO.C,C9*%
X231000000Y-169600000D03*
X228925000Y-169600000D03*
%TD*%
D12*
%TO.C,D19*%
X325450000Y-144600000D03*
X325450000Y-141400000D03*
X320550000Y-141400000D03*
X320550000Y-144600000D03*
%TD*%
D11*
%TO.C,C39*%
X191000000Y-119600000D03*
X188925000Y-119600000D03*
%TD*%
%TO.C,C44*%
X291000000Y-119600000D03*
X288925000Y-119600000D03*
%TD*%
D10*
%TO.C,C30*%
X95000000Y-141400000D03*
X97075000Y-141400000D03*
%TD*%
D12*
%TO.C,D22*%
X265450000Y-144600000D03*
X265450000Y-141400000D03*
X260550000Y-141400000D03*
X260550000Y-144600000D03*
%TD*%
D10*
%TO.C,C18*%
X335000000Y-141400000D03*
X337075000Y-141400000D03*
%TD*%
D11*
%TO.C,C1*%
X71000000Y-169600000D03*
X68925000Y-169600000D03*
%TD*%
%TO.C,C48*%
X371000000Y-119600000D03*
X368925000Y-119600000D03*
%TD*%
D12*
%TO.C,D5*%
X140550000Y-166400000D03*
X140550000Y-169600000D03*
X145450000Y-169600000D03*
X145450000Y-166400000D03*
%TD*%
%TO.C,D34*%
X80550000Y-116400000D03*
X80550000Y-119600000D03*
X85450000Y-119600000D03*
X85450000Y-116400000D03*
%TD*%
D14*
%TO.C,REF\u002A\u002A5*%
X113000000Y-158000000D03*
X113000000Y-158000000D03*
%TD*%
D12*
%TO.C,D46*%
X320550000Y-116400000D03*
X320550000Y-119600000D03*
X325450000Y-119600000D03*
X325450000Y-116400000D03*
%TD*%
D11*
%TO.C,C14*%
X332037500Y-169600000D03*
X329962500Y-169600000D03*
%TD*%
D12*
%TO.C,D7*%
X180550000Y-166400000D03*
X180550000Y-169600000D03*
X185450000Y-169600000D03*
X185450000Y-166400000D03*
%TD*%
D11*
%TO.C,C34*%
X91000000Y-119600000D03*
X88925000Y-119600000D03*
%TD*%
D12*
%TO.C,D40*%
X200550000Y-116400000D03*
X200550000Y-119600000D03*
X205450000Y-119600000D03*
X205450000Y-116400000D03*
%TD*%
D11*
%TO.C,C10*%
X251000000Y-169600000D03*
X248925000Y-169600000D03*
%TD*%
D15*
%TO.C,*%
X60000000Y-159000000D03*
%TD*%
D16*
%TO.C,*%
X366000000Y-134000000D03*
%TD*%
D12*
%TO.C,D29*%
X125450000Y-144600000D03*
X125450000Y-141400000D03*
X120550000Y-141400000D03*
X120550000Y-144600000D03*
%TD*%
%TO.C,D31*%
X85450000Y-144600000D03*
X85450000Y-141400000D03*
X80550000Y-141400000D03*
X80550000Y-144600000D03*
%TD*%
D11*
%TO.C,C3*%
X111000000Y-169600000D03*
X108925000Y-169600000D03*
%TD*%
%TO.C,C38*%
X171000000Y-119600000D03*
X168925000Y-119600000D03*
%TD*%
D14*
%TO.C,REF\u002A\u002A7*%
X213000000Y-158000000D03*
X213000000Y-158000000D03*
%TD*%
%TO.C,REF\u002A\u002A1*%
X163000000Y-128000000D03*
X163000000Y-128000000D03*
%TD*%
D11*
%TO.C,C12*%
X291000000Y-169600000D03*
X288925000Y-169600000D03*
%TD*%
%TO.C,C46*%
X331000000Y-119600000D03*
X328925000Y-119600000D03*
%TD*%
D12*
%TO.C,D35*%
X100550000Y-116400000D03*
X100550000Y-119600000D03*
X105450000Y-119600000D03*
X105450000Y-116400000D03*
%TD*%
%TO.C,D41*%
X220550000Y-116400000D03*
X220550000Y-119600000D03*
X225450000Y-119600000D03*
X225450000Y-116400000D03*
%TD*%
%TO.C,D44*%
X280550000Y-116400000D03*
X280550000Y-119600000D03*
X285450000Y-119600000D03*
X285450000Y-116400000D03*
%TD*%
D11*
%TO.C,C15*%
X351000000Y-169600000D03*
X348925000Y-169600000D03*
%TD*%
D10*
%TO.C,C26*%
X175000000Y-141400000D03*
X177075000Y-141400000D03*
%TD*%
%TO.C,C28*%
X135000000Y-141400000D03*
X137075000Y-141400000D03*
%TD*%
D12*
%TO.C,D42*%
X240550000Y-116400000D03*
X240550000Y-119600000D03*
X245450000Y-119600000D03*
X245450000Y-116400000D03*
%TD*%
%TO.C,D8*%
X200550000Y-166400000D03*
X200550000Y-169600000D03*
X205450000Y-169600000D03*
X205450000Y-166400000D03*
%TD*%
%TO.C,D48*%
X360550000Y-116400000D03*
X360550000Y-119600000D03*
X365450000Y-119600000D03*
X365450000Y-116400000D03*
%TD*%
%TO.C,D39*%
X180550000Y-116400000D03*
X180550000Y-119600000D03*
X185450000Y-119600000D03*
X185450000Y-116400000D03*
%TD*%
%TO.C,D14*%
X320550000Y-166400000D03*
X320550000Y-169600000D03*
X325450000Y-169600000D03*
X325450000Y-166400000D03*
%TD*%
%TO.C,D17*%
X365450000Y-144600000D03*
X365450000Y-141400000D03*
X360550000Y-141400000D03*
X360550000Y-144600000D03*
%TD*%
D11*
%TO.C,C36*%
X131000000Y-119600000D03*
X128925000Y-119600000D03*
%TD*%
D14*
%TO.C,REF\u002A\u002A4*%
X313000000Y-128000000D03*
X313000000Y-128000000D03*
%TD*%
D12*
%TO.C,D9*%
X220550000Y-166400000D03*
X220550000Y-169600000D03*
X225450000Y-169600000D03*
X225450000Y-166400000D03*
%TD*%
D11*
%TO.C,C6*%
X171000000Y-169600000D03*
X168925000Y-169600000D03*
%TD*%
D10*
%TO.C,C25*%
X193962500Y-141400000D03*
X196037500Y-141400000D03*
%TD*%
D11*
%TO.C,C4*%
X131000000Y-169600000D03*
X128925000Y-169600000D03*
%TD*%
D12*
%TO.C,D15*%
X340550000Y-166400000D03*
X340550000Y-169600000D03*
X345450000Y-169600000D03*
X345450000Y-166400000D03*
%TD*%
D16*
%TO.C,*%
X366000000Y-127000000D03*
%TD*%
D12*
%TO.C,D16*%
X360550000Y-166400000D03*
X360550000Y-169600000D03*
X365450000Y-169600000D03*
X365450000Y-166400000D03*
%TD*%
D11*
%TO.C,C40*%
X211000000Y-119600000D03*
X208925000Y-119600000D03*
%TD*%
D10*
%TO.C,C16*%
X361962500Y-176375000D03*
X364037500Y-176375000D03*
%TD*%
D12*
%TO.C,D47*%
X340550000Y-116400000D03*
X340550000Y-119600000D03*
X345450000Y-119600000D03*
X345450000Y-116400000D03*
%TD*%
D11*
%TO.C,C13*%
X312037500Y-169600000D03*
X309962500Y-169600000D03*
%TD*%
%TO.C,C45*%
X311000000Y-119600000D03*
X308925000Y-119600000D03*
%TD*%
%TO.C,C2*%
X91000000Y-169600000D03*
X88925000Y-169600000D03*
%TD*%
%TO.C,C7*%
X191000000Y-169600000D03*
X188925000Y-169600000D03*
%TD*%
M02*
