%TF.GenerationSoftware,KiCad,Pcbnew,(6.0.10)*%
%TF.CreationDate,2023-01-22T19:50:49+01:00*%
%TF.ProjectId,exiLight,6578694c-6967-4687-942e-6b696361645f,1.1*%
%TF.SameCoordinates,Original*%
%TF.FileFunction,Profile,NP*%
%FSLAX46Y46*%
G04 Gerber Fmt 4.6, Leading zero omitted, Abs format (unit mm)*
G04 Created by KiCad (PCBNEW (6.0.10)) date 2023-01-22 19:50:49*
%MOMM*%
%LPD*%
G01*
G04 APERTURE LIST*
%TA.AperFunction,Profile*%
%ADD10C,0.100000*%
%TD*%
G04 APERTURE END LIST*
D10*
X66000000Y-150750000D02*
X84000000Y-150750000D01*
X43000000Y-108500000D02*
X43000000Y-177500000D01*
X342000000Y-125500000D02*
G75*
G03*
X341000000Y-126500000I0J-1000000D01*
G01*
X361000000Y-126500000D02*
G75*
G03*
X360000000Y-125500000I-1000000J0D01*
G01*
X380000000Y-105500000D02*
X46000000Y-105500000D01*
X85000000Y-151750000D02*
G75*
G03*
X84000000Y-150750000I-1000000J0D01*
G01*
X65000000Y-159250000D02*
G75*
G03*
X66000000Y-160250000I1000000J0D01*
G01*
X383000000Y-177500000D02*
X383000000Y-108500000D01*
X342000000Y-125500000D02*
X360000000Y-125500000D01*
X361000000Y-126500000D02*
X361000000Y-134000000D01*
X66000000Y-150750000D02*
G75*
G03*
X65000000Y-151750000I0J-1000000D01*
G01*
X84000000Y-160250000D02*
G75*
G03*
X85000000Y-159250000I0J1000000D01*
G01*
X341000000Y-134000000D02*
G75*
G03*
X342000000Y-135000000I1000000J0D01*
G01*
X85000000Y-151750000D02*
X85000000Y-159250000D01*
X360000000Y-135000000D02*
G75*
G03*
X361000000Y-134000000I0J1000000D01*
G01*
X380000000Y-180500000D02*
G75*
G03*
X383000000Y-177500000I0J3000000D01*
G01*
X46000000Y-180500000D02*
X380000000Y-180500000D01*
X341000000Y-134000000D02*
X341000000Y-126500000D01*
X84000000Y-160250000D02*
X66000000Y-160250000D01*
X46000000Y-105500000D02*
G75*
G03*
X43000000Y-108500000I0J-3000000D01*
G01*
X65000000Y-159250000D02*
X65000000Y-151750000D01*
X360000000Y-135000000D02*
X342000000Y-135000000D01*
X383000000Y-108500000D02*
G75*
G03*
X380000000Y-105500000I-3000000J0D01*
G01*
X43000000Y-177500000D02*
G75*
G03*
X46000000Y-180500000I3000000J0D01*
G01*
M02*
